<mxfile host="app.diagrams.net" modified="2023-11-24T02:58:55.532Z" agent="Mozilla/5.0 (Windows NT 10.0; Win64; x64) AppleWebKit/537.36 (KHTML, like Gecko) Chrome/119.0.0.0 Safari/537.36" etag="eQiSCiCJ71dRPqP9FZqW" version="22.1.3" type="github">
  <diagram name="Page-1" id="0783ab3e-0a74-02c8-0abd-f7b4e66b4bec">
    <mxGraphModel dx="1235" dy="1747" grid="1" gridSize="10" guides="1" tooltips="1" connect="1" arrows="1" fold="1" page="1" pageScale="1" pageWidth="850" pageHeight="1100" background="none" math="0" shadow="0">
      <root>
        <mxCell id="0" />
        <mxCell id="1" parent="0" />
        <mxCell id="1c1d494c118603dd-1" value="Data Platform" style="swimlane;html=1;childLayout=stackLayout;startSize=20;rounded=0;shadow=0;comic=0;labelBackgroundColor=none;strokeWidth=1;fontFamily=Verdana;fontSize=12;align=center;" parent="1" vertex="1">
          <mxGeometry x="33" y="-20" width="1120" height="690" as="geometry" />
        </mxCell>
        <mxCell id="JpOBOUfPKi8hV-zPUk-4-53" style="rounded=0;orthogonalLoop=1;jettySize=auto;html=1;entryX=1;entryY=0.5;entryDx=0;entryDy=0;" edge="1" parent="1c1d494c118603dd-1" source="JpOBOUfPKi8hV-zPUk-4-11" target="1c1d494c118603dd-7">
          <mxGeometry relative="1" as="geometry" />
        </mxCell>
        <mxCell id="JpOBOUfPKi8hV-zPUk-4-55" style="rounded=0;orthogonalLoop=1;jettySize=auto;html=1;exitX=0.75;exitY=1;exitDx=0;exitDy=0;entryX=0;entryY=0.5;entryDx=0;entryDy=0;" edge="1" parent="1c1d494c118603dd-1" source="1c1d494c118603dd-7" target="JpOBOUfPKi8hV-zPUk-4-54">
          <mxGeometry relative="1" as="geometry" />
        </mxCell>
        <mxCell id="1c1d494c118603dd-2" value="平台管理" style="swimlane;html=1;startSize=20;" parent="1c1d494c118603dd-1" vertex="1">
          <mxGeometry y="20" width="250" height="670" as="geometry" />
        </mxCell>
        <mxCell id="JpOBOUfPKi8hV-zPUk-4-48" value="" style="edgeStyle=orthogonalEdgeStyle;rounded=0;orthogonalLoop=1;jettySize=auto;html=1;" edge="1" parent="1c1d494c118603dd-2" source="1c1d494c118603dd-6" target="1c1d494c118603dd-7">
          <mxGeometry relative="1" as="geometry" />
        </mxCell>
        <mxCell id="1c1d494c118603dd-6" value="创建对接方" style="rounded=1;whiteSpace=wrap;html=1;shadow=0;comic=0;labelBackgroundColor=none;strokeWidth=1;fontFamily=Verdana;fontSize=12;align=center;arcSize=50;" parent="1c1d494c118603dd-2" vertex="1">
          <mxGeometry x="75" y="220" width="100" height="30" as="geometry" />
        </mxCell>
        <mxCell id="1c1d494c118603dd-7" value="查询对接方" style="rounded=1;whiteSpace=wrap;html=1;shadow=0;comic=0;labelBackgroundColor=none;strokeWidth=1;fontFamily=Verdana;fontSize=12;align=center;arcSize=50;" parent="1c1d494c118603dd-2" vertex="1">
          <mxGeometry x="75" y="348" width="100" height="30" as="geometry" />
        </mxCell>
        <mxCell id="JpOBOUfPKi8hV-zPUk-4-47" value="" style="edgeStyle=orthogonalEdgeStyle;rounded=0;orthogonalLoop=1;jettySize=auto;html=1;" edge="1" parent="1c1d494c118603dd-2" source="JpOBOUfPKi8hV-zPUk-4-46" target="1c1d494c118603dd-6">
          <mxGeometry relative="1" as="geometry" />
        </mxCell>
        <mxCell id="JpOBOUfPKi8hV-zPUk-4-46" value="" style="ellipse;whiteSpace=wrap;html=1;rounded=0;shadow=0;comic=0;labelBackgroundColor=none;strokeWidth=1;fillColor=#000000;fontFamily=Verdana;fontSize=12;align=center;" vertex="1" parent="1c1d494c118603dd-2">
          <mxGeometry x="105" y="40" width="40" height="40" as="geometry" />
        </mxCell>
        <mxCell id="JpOBOUfPKi8hV-zPUk-4-67" value="" style="edgeStyle=orthogonalEdgeStyle;rounded=0;orthogonalLoop=1;jettySize=auto;html=1;" edge="1" parent="1c1d494c118603dd-2" source="1c1d494c118603dd-7" target="JpOBOUfPKi8hV-zPUk-4-66">
          <mxGeometry relative="1" as="geometry">
            <mxPoint x="158" y="340" as="sourcePoint" />
            <mxPoint x="158" y="420" as="targetPoint" />
          </mxGeometry>
        </mxCell>
        <mxCell id="JpOBOUfPKi8hV-zPUk-4-66" value="" style="shape=mxgraph.bpmn.shape;html=1;verticalLabelPosition=bottom;labelBackgroundColor=#ffffff;verticalAlign=top;perimeter=ellipsePerimeter;outline=end;symbol=terminate;rounded=0;shadow=0;comic=0;strokeWidth=1;fontFamily=Verdana;fontSize=12;align=center;" vertex="1" parent="1c1d494c118603dd-2">
          <mxGeometry x="105" y="460" width="40" height="40" as="geometry" />
        </mxCell>
        <mxCell id="1c1d494c118603dd-3" value="项目管理" style="swimlane;html=1;startSize=20;" parent="1c1d494c118603dd-1" vertex="1">
          <mxGeometry x="250" y="20" width="250" height="670" as="geometry" />
        </mxCell>
        <mxCell id="1c1d494c118603dd-41" style="edgeStyle=none;rounded=0;html=1;labelBackgroundColor=none;startArrow=none;startFill=0;startSize=5;endArrow=classicThin;endFill=1;endSize=5;jettySize=auto;orthogonalLoop=1;strokeWidth=1;fontFamily=Verdana;fontSize=12;exitX=0.5;exitY=1;exitDx=0;exitDy=0;dashed=1;" parent="1c1d494c118603dd-3" source="JpOBOUfPKi8hV-zPUk-4-37" target="1c1d494c118603dd-16" edge="1">
          <mxGeometry relative="1" as="geometry" />
        </mxCell>
        <mxCell id="JpOBOUfPKi8hV-zPUk-4-44" style="rounded=0;orthogonalLoop=1;jettySize=auto;html=1;entryX=0.5;entryY=0;entryDx=0;entryDy=0;" edge="1" parent="1c1d494c118603dd-3" source="1c1d494c118603dd-15" target="JpOBOUfPKi8hV-zPUk-4-57">
          <mxGeometry relative="1" as="geometry">
            <mxPoint x="125" y="470" as="targetPoint" />
          </mxGeometry>
        </mxCell>
        <mxCell id="1c1d494c118603dd-15" value="实时资源" style="rounded=1;whiteSpace=wrap;html=1;shadow=0;comic=0;labelBackgroundColor=none;strokeWidth=1;fontFamily=Verdana;fontSize=12;align=center;arcSize=50;fillColor=#ffe6cc;strokeColor=#d79b00;" parent="1c1d494c118603dd-3" vertex="1">
          <mxGeometry x="30" y="203" width="70" height="30" as="geometry" />
        </mxCell>
        <mxCell id="1c1d494c118603dd-16" value="实时开发类库" style="rounded=1;whiteSpace=wrap;html=1;shadow=0;comic=0;labelBackgroundColor=none;strokeWidth=1;fontFamily=Verdana;fontSize=12;align=center;arcSize=50;fillColor=#ffe6cc;strokeColor=#d79b00;" parent="1c1d494c118603dd-3" vertex="1">
          <mxGeometry x="115" y="343" width="100" height="30" as="geometry" />
        </mxCell>
        <mxCell id="JpOBOUfPKi8hV-zPUk-4-40" style="rounded=0;orthogonalLoop=1;jettySize=auto;html=1;entryX=0.5;entryY=0;entryDx=0;entryDy=0;" edge="1" parent="1c1d494c118603dd-3" source="1c1d494c118603dd-11" target="JpOBOUfPKi8hV-zPUk-4-37">
          <mxGeometry relative="1" as="geometry" />
        </mxCell>
        <mxCell id="1c1d494c118603dd-11" value="上传资源" style="rounded=1;whiteSpace=wrap;html=1;shadow=0;comic=0;labelBackgroundColor=none;strokeWidth=1;fontFamily=Verdana;fontSize=12;align=center;arcSize=50;" parent="1c1d494c118603dd-3" vertex="1">
          <mxGeometry x="70" y="130" width="100" height="30" as="geometry" />
        </mxCell>
        <mxCell id="1c1d494c118603dd-40" style="edgeStyle=none;rounded=0;html=1;labelBackgroundColor=none;startArrow=none;startFill=0;startSize=5;endArrow=classicThin;endFill=1;endSize=5;jettySize=auto;orthogonalLoop=1;strokeWidth=1;fontFamily=Verdana;fontSize=12" parent="1c1d494c118603dd-3" source="1c1d494c118603dd-11" target="1c1d494c118603dd-15" edge="1">
          <mxGeometry relative="1" as="geometry" />
        </mxCell>
        <mxCell id="JpOBOUfPKi8hV-zPUk-4-37" value="离线资源" style="rounded=1;whiteSpace=wrap;html=1;shadow=0;comic=0;labelBackgroundColor=none;strokeWidth=1;fontFamily=Verdana;fontSize=12;align=center;arcSize=50;" vertex="1" parent="1c1d494c118603dd-3">
          <mxGeometry x="130" y="204" width="70" height="30" as="geometry" />
        </mxCell>
        <mxCell id="JpOBOUfPKi8hV-zPUk-4-42" value="" style="edgeStyle=orthogonalEdgeStyle;rounded=0;orthogonalLoop=1;jettySize=auto;html=1;" edge="1" parent="1c1d494c118603dd-3" source="JpOBOUfPKi8hV-zPUk-4-41" target="1c1d494c118603dd-11">
          <mxGeometry relative="1" as="geometry" />
        </mxCell>
        <mxCell id="JpOBOUfPKi8hV-zPUk-4-41" value="" style="ellipse;whiteSpace=wrap;html=1;rounded=0;shadow=0;comic=0;labelBackgroundColor=none;strokeWidth=1;fillColor=#000000;fontFamily=Verdana;fontSize=12;align=center;" vertex="1" parent="1c1d494c118603dd-3">
          <mxGeometry x="100" y="40" width="40" height="40" as="geometry" />
        </mxCell>
        <mxCell id="JpOBOUfPKi8hV-zPUk-4-59" value="" style="rounded=0;orthogonalLoop=1;jettySize=auto;html=1;entryX=0.5;entryY=0;entryDx=0;entryDy=0;" edge="1" parent="1c1d494c118603dd-3" source="1c1d494c118603dd-16" target="JpOBOUfPKi8hV-zPUk-4-57">
          <mxGeometry relative="1" as="geometry">
            <mxPoint x="441" y="350" as="sourcePoint" />
            <mxPoint x="405" y="470" as="targetPoint" />
          </mxGeometry>
        </mxCell>
        <mxCell id="JpOBOUfPKi8hV-zPUk-4-57" value="" style="shape=mxgraph.bpmn.shape;html=1;verticalLabelPosition=bottom;labelBackgroundColor=#ffffff;verticalAlign=top;perimeter=ellipsePerimeter;outline=end;symbol=terminate;rounded=0;shadow=0;comic=0;strokeWidth=1;fontFamily=Verdana;fontSize=12;align=center;" vertex="1" parent="1c1d494c118603dd-3">
          <mxGeometry x="105" y="564" width="40" height="40" as="geometry" />
        </mxCell>
        <mxCell id="1c1d494c118603dd-4" value="数据服务" style="swimlane;html=1;startSize=20;" parent="1c1d494c118603dd-1" vertex="1">
          <mxGeometry x="500" y="20" width="250" height="670" as="geometry" />
        </mxCell>
        <mxCell id="1c1d494c118603dd-27" style="edgeStyle=orthogonalEdgeStyle;rounded=0;html=1;labelBackgroundColor=none;startArrow=none;startFill=0;startSize=5;endArrow=classicThin;endFill=1;endSize=5;jettySize=auto;orthogonalLoop=1;strokeWidth=1;fontFamily=Verdana;fontSize=12" parent="1c1d494c118603dd-4" source="60571a20871a0731-4" target="60571a20871a0731-8" edge="1">
          <mxGeometry relative="1" as="geometry" />
        </mxCell>
        <mxCell id="60571a20871a0731-4" value="" style="ellipse;whiteSpace=wrap;html=1;rounded=0;shadow=0;comic=0;labelBackgroundColor=none;strokeWidth=1;fillColor=#000000;fontFamily=Verdana;fontSize=12;align=center;" parent="1c1d494c118603dd-4" vertex="1">
          <mxGeometry x="115" y="40" width="40" height="40" as="geometry" />
        </mxCell>
        <mxCell id="JpOBOUfPKi8hV-zPUk-4-30" value="" style="edgeStyle=orthogonalEdgeStyle;rounded=0;orthogonalLoop=1;jettySize=auto;html=1;" edge="1" parent="1c1d494c118603dd-4" source="60571a20871a0731-8" target="1c1d494c118603dd-5">
          <mxGeometry relative="1" as="geometry" />
        </mxCell>
        <mxCell id="60571a20871a0731-8" value="创建数据服务" style="rounded=1;whiteSpace=wrap;html=1;shadow=0;comic=0;labelBackgroundColor=none;strokeWidth=1;fontFamily=Verdana;fontSize=12;align=center;arcSize=50;" parent="1c1d494c118603dd-4" vertex="1">
          <mxGeometry x="85" y="130" width="100" height="30" as="geometry" />
        </mxCell>
        <mxCell id="1c1d494c118603dd-33" style="rounded=0;html=1;labelBackgroundColor=none;startArrow=none;startFill=0;startSize=5;endArrow=classicThin;endFill=1;endSize=5;jettySize=auto;orthogonalLoop=1;strokeWidth=1;fontFamily=Verdana;fontSize=12;exitX=0.5;exitY=1;exitDx=0;exitDy=0;" parent="1c1d494c118603dd-4" source="1c1d494c118603dd-5" target="1c1d494c118603dd-9" edge="1">
          <mxGeometry relative="1" as="geometry">
            <mxPoint x="100" y="200" as="sourcePoint" />
          </mxGeometry>
        </mxCell>
        <mxCell id="1c1d494c118603dd-5" value="创建API" style="rounded=1;whiteSpace=wrap;html=1;shadow=0;comic=0;labelBackgroundColor=none;strokeWidth=1;fontFamily=Verdana;fontSize=12;align=center;arcSize=50;" parent="1c1d494c118603dd-4" vertex="1">
          <mxGeometry x="85" y="182" width="100" height="30" as="geometry" />
        </mxCell>
        <mxCell id="JpOBOUfPKi8hV-zPUk-4-52" value="" style="edgeStyle=orthogonalEdgeStyle;rounded=0;orthogonalLoop=1;jettySize=auto;html=1;" edge="1" parent="1c1d494c118603dd-4" source="1c1d494c118603dd-8" target="JpOBOUfPKi8hV-zPUk-4-11">
          <mxGeometry relative="1" as="geometry" />
        </mxCell>
        <mxCell id="1c1d494c118603dd-8" value="授权API" style="rounded=1;whiteSpace=wrap;html=1;shadow=0;comic=0;labelBackgroundColor=none;strokeWidth=1;fontFamily=Verdana;fontSize=12;align=center;arcSize=50;" parent="1c1d494c118603dd-4" vertex="1">
          <mxGeometry x="102.5" y="331" width="65" height="30" as="geometry" />
        </mxCell>
        <mxCell id="1c1d494c118603dd-37" style="edgeStyle=none;rounded=0;html=1;labelBackgroundColor=none;startArrow=none;startFill=0;startSize=5;endArrow=classicThin;endFill=1;endSize=5;jettySize=auto;orthogonalLoop=1;strokeWidth=1;fontFamily=Verdana;fontSize=12;entryX=0.5;entryY=0;entryDx=0;entryDy=0;" parent="1c1d494c118603dd-4" source="1c1d494c118603dd-9" target="1c1d494c118603dd-8" edge="1">
          <mxGeometry relative="1" as="geometry">
            <mxPoint x="135" y="310" as="targetPoint" />
          </mxGeometry>
        </mxCell>
        <mxCell id="1c1d494c118603dd-9" value="自定义API" style="rounded=1;whiteSpace=wrap;html=1;shadow=0;comic=0;labelBackgroundColor=none;strokeWidth=1;fontFamily=Verdana;fontSize=12;align=center;arcSize=50;" parent="1c1d494c118603dd-4" vertex="1">
          <mxGeometry x="45" y="255" width="70" height="30" as="geometry" />
        </mxCell>
        <mxCell id="JpOBOUfPKi8hV-zPUk-4-65" value="" style="edgeStyle=orthogonalEdgeStyle;rounded=0;orthogonalLoop=1;jettySize=auto;html=1;" edge="1" parent="1c1d494c118603dd-4" source="1c1d494c118603dd-13" target="JpOBOUfPKi8hV-zPUk-4-64">
          <mxGeometry relative="1" as="geometry" />
        </mxCell>
        <mxCell id="1c1d494c118603dd-13" value="发布上线" style="rounded=0;whiteSpace=wrap;html=1;shadow=0;comic=0;labelBackgroundColor=none;strokeWidth=1;fontFamily=Verdana;fontSize=12;align=center;arcSize=50;" parent="1c1d494c118603dd-4" vertex="1">
          <mxGeometry x="100" y="510" width="70" height="30" as="geometry" />
        </mxCell>
        <mxCell id="JpOBOUfPKi8hV-zPUk-4-62" style="rounded=0;orthogonalLoop=1;jettySize=auto;html=1;entryX=0.5;entryY=0;entryDx=0;entryDy=0;" edge="1" parent="1c1d494c118603dd-4" source="JpOBOUfPKi8hV-zPUk-4-31" target="1c1d494c118603dd-8">
          <mxGeometry relative="1" as="geometry">
            <mxPoint x="167" y="310" as="targetPoint" />
          </mxGeometry>
        </mxCell>
        <mxCell id="JpOBOUfPKi8hV-zPUk-4-31" value="API模版" style="rounded=1;whiteSpace=wrap;html=1;shadow=0;comic=0;labelBackgroundColor=none;strokeWidth=1;fontFamily=Verdana;fontSize=12;align=center;arcSize=50;" vertex="1" parent="1c1d494c118603dd-4">
          <mxGeometry x="162.5" y="255" width="70" height="30" as="geometry" />
        </mxCell>
        <mxCell id="JpOBOUfPKi8hV-zPUk-4-33" style="rounded=0;html=1;labelBackgroundColor=none;startArrow=none;startFill=0;startSize=5;endArrow=classicThin;endFill=1;endSize=5;jettySize=auto;orthogonalLoop=1;strokeWidth=1;fontFamily=Verdana;fontSize=12;exitX=0.5;exitY=1;exitDx=0;exitDy=0;entryX=0.5;entryY=0;entryDx=0;entryDy=0;" edge="1" parent="1c1d494c118603dd-4" source="1c1d494c118603dd-5" target="JpOBOUfPKi8hV-zPUk-4-31">
          <mxGeometry relative="1" as="geometry">
            <mxPoint x="102" y="210" as="sourcePoint" />
            <mxPoint x="68" y="278" as="targetPoint" />
          </mxGeometry>
        </mxCell>
        <mxCell id="JpOBOUfPKi8hV-zPUk-4-11" value="查询对接方" style="rounded=0;whiteSpace=wrap;html=1;shadow=0;comic=0;labelBackgroundColor=none;strokeWidth=1;fontFamily=Verdana;fontSize=12;align=center;arcSize=50;" vertex="1" parent="1c1d494c118603dd-4">
          <mxGeometry x="100" y="390" width="70" height="30" as="geometry" />
        </mxCell>
        <mxCell id="JpOBOUfPKi8hV-zPUk-4-56" style="edgeStyle=orthogonalEdgeStyle;rounded=0;orthogonalLoop=1;jettySize=auto;html=1;entryX=0.5;entryY=0;entryDx=0;entryDy=0;" edge="1" parent="1c1d494c118603dd-4" source="JpOBOUfPKi8hV-zPUk-4-54" target="1c1d494c118603dd-13">
          <mxGeometry relative="1" as="geometry" />
        </mxCell>
        <mxCell id="JpOBOUfPKi8hV-zPUk-4-54" value="绑定对接方" style="rounded=0;whiteSpace=wrap;html=1;shadow=0;comic=0;labelBackgroundColor=none;strokeWidth=1;fontFamily=Verdana;fontSize=12;align=center;arcSize=50;" vertex="1" parent="1c1d494c118603dd-4">
          <mxGeometry x="85" y="446" width="100" height="30" as="geometry" />
        </mxCell>
        <mxCell id="JpOBOUfPKi8hV-zPUk-4-68" value="数据服务API" style="text;html=1;strokeColor=none;fillColor=none;align=center;verticalAlign=middle;whiteSpace=wrap;rounded=0;" vertex="1" parent="1c1d494c118603dd-4">
          <mxGeometry x="185" y="160" width="60" height="30" as="geometry" />
        </mxCell>
        <mxCell id="JpOBOUfPKi8hV-zPUk-4-64" value="" style="shape=mxgraph.bpmn.shape;html=1;verticalLabelPosition=bottom;labelBackgroundColor=#ffffff;verticalAlign=top;perimeter=ellipsePerimeter;outline=end;symbol=terminate;rounded=0;shadow=0;comic=0;strokeWidth=1;fontFamily=Verdana;fontSize=12;align=center;" vertex="1" parent="1c1d494c118603dd-4">
          <mxGeometry x="115" y="600" width="40" height="40" as="geometry" />
        </mxCell>
        <mxCell id="JpOBOUfPKi8hV-zPUk-4-1" value="事件引擎" style="swimlane;html=1;startSize=20;" vertex="1" parent="1c1d494c118603dd-1">
          <mxGeometry x="750" y="20" width="370" height="670" as="geometry" />
        </mxCell>
        <mxCell id="JpOBOUfPKi8hV-zPUk-4-2" style="edgeStyle=orthogonalEdgeStyle;rounded=0;html=1;labelBackgroundColor=none;startArrow=none;startFill=0;startSize=5;endArrow=classicThin;endFill=1;endSize=5;jettySize=auto;orthogonalLoop=1;strokeWidth=1;fontFamily=Verdana;fontSize=12" edge="1" parent="JpOBOUfPKi8hV-zPUk-4-1" source="JpOBOUfPKi8hV-zPUk-4-3" target="JpOBOUfPKi8hV-zPUk-4-4">
          <mxGeometry relative="1" as="geometry" />
        </mxCell>
        <mxCell id="JpOBOUfPKi8hV-zPUk-4-3" value="" style="ellipse;whiteSpace=wrap;html=1;rounded=0;shadow=0;comic=0;labelBackgroundColor=none;strokeWidth=1;fillColor=#000000;fontFamily=Verdana;fontSize=12;align=center;" vertex="1" parent="JpOBOUfPKi8hV-zPUk-4-1">
          <mxGeometry x="107" y="40" width="40" height="40" as="geometry" />
        </mxCell>
        <mxCell id="JpOBOUfPKi8hV-zPUk-4-60" value="" style="edgeStyle=orthogonalEdgeStyle;rounded=0;orthogonalLoop=1;jettySize=auto;html=1;" edge="1" parent="JpOBOUfPKi8hV-zPUk-4-1" source="JpOBOUfPKi8hV-zPUk-4-4" target="JpOBOUfPKi8hV-zPUk-4-6">
          <mxGeometry relative="1" as="geometry" />
        </mxCell>
        <mxCell id="JpOBOUfPKi8hV-zPUk-4-4" value="创建工作流" style="rounded=1;whiteSpace=wrap;html=1;shadow=0;comic=0;labelBackgroundColor=none;strokeWidth=1;fontFamily=Verdana;fontSize=12;align=center;arcSize=50;" vertex="1" parent="JpOBOUfPKi8hV-zPUk-4-1">
          <mxGeometry x="77" y="130" width="100" height="30" as="geometry" />
        </mxCell>
        <mxCell id="JpOBOUfPKi8hV-zPUk-4-5" style="rounded=0;html=1;labelBackgroundColor=none;startArrow=none;startFill=0;startSize=5;endArrow=classicThin;endFill=1;endSize=5;jettySize=auto;orthogonalLoop=1;strokeWidth=1;fontFamily=Verdana;fontSize=12" edge="1" parent="JpOBOUfPKi8hV-zPUk-4-1" source="JpOBOUfPKi8hV-zPUk-4-6" target="JpOBOUfPKi8hV-zPUk-4-10">
          <mxGeometry relative="1" as="geometry" />
        </mxCell>
        <mxCell id="JpOBOUfPKi8hV-zPUk-4-6" value="创建版本" style="rounded=1;whiteSpace=wrap;html=1;shadow=0;comic=0;labelBackgroundColor=none;strokeWidth=1;fontFamily=Verdana;fontSize=12;align=center;arcSize=50;" vertex="1" parent="JpOBOUfPKi8hV-zPUk-4-1">
          <mxGeometry x="77" y="190" width="100" height="30" as="geometry" />
        </mxCell>
        <mxCell id="JpOBOUfPKi8hV-zPUk-4-74" style="edgeStyle=orthogonalEdgeStyle;rounded=0;orthogonalLoop=1;jettySize=auto;html=1;exitX=0.5;exitY=1;exitDx=0;exitDy=0;entryX=0.5;entryY=0;entryDx=0;entryDy=0;" edge="1" parent="JpOBOUfPKi8hV-zPUk-4-1" source="JpOBOUfPKi8hV-zPUk-4-63" target="JpOBOUfPKi8hV-zPUk-4-73">
          <mxGeometry relative="1" as="geometry" />
        </mxCell>
        <mxCell id="JpOBOUfPKi8hV-zPUk-4-63" value="" style="swimlane;startSize=0;" vertex="1" parent="JpOBOUfPKi8hV-zPUk-4-1">
          <mxGeometry x="47" y="265" width="163" height="220" as="geometry" />
        </mxCell>
        <mxCell id="JpOBOUfPKi8hV-zPUk-4-10" value="绘制流程图" style="rounded=0;whiteSpace=wrap;html=1;shadow=0;comic=0;labelBackgroundColor=none;strokeWidth=1;fontFamily=Verdana;fontSize=12;align=center;arcSize=50;" vertex="1" parent="JpOBOUfPKi8hV-zPUk-4-63">
          <mxGeometry x="45" y="-10" width="70" height="30" as="geometry" />
        </mxCell>
        <mxCell id="JpOBOUfPKi8hV-zPUk-4-71" style="edgeStyle=orthogonalEdgeStyle;rounded=0;orthogonalLoop=1;jettySize=auto;html=1;exitX=0.5;exitY=1;exitDx=0;exitDy=0;entryX=0.5;entryY=0;entryDx=0;entryDy=0;" edge="1" parent="JpOBOUfPKi8hV-zPUk-4-63" source="JpOBOUfPKi8hV-zPUk-4-8" target="JpOBOUfPKi8hV-zPUk-4-69">
          <mxGeometry relative="1" as="geometry" />
        </mxCell>
        <mxCell id="JpOBOUfPKi8hV-zPUk-4-8" value="创建输入节点" style="rounded=1;whiteSpace=wrap;html=1;shadow=0;comic=0;labelBackgroundColor=none;strokeWidth=1;fontFamily=Verdana;fontSize=12;align=center;arcSize=50;dashed=1;" vertex="1" parent="JpOBOUfPKi8hV-zPUk-4-63">
          <mxGeometry x="30" y="40" width="100" height="30" as="geometry" />
        </mxCell>
        <mxCell id="JpOBOUfPKi8hV-zPUk-4-9" style="edgeStyle=none;rounded=0;html=1;labelBackgroundColor=none;startArrow=none;startFill=0;startSize=5;endArrow=classicThin;endFill=1;endSize=5;jettySize=auto;orthogonalLoop=1;strokeWidth=1;fontFamily=Verdana;fontSize=12" edge="1" parent="JpOBOUfPKi8hV-zPUk-4-63" source="JpOBOUfPKi8hV-zPUk-4-10" target="JpOBOUfPKi8hV-zPUk-4-8">
          <mxGeometry relative="1" as="geometry" />
        </mxCell>
        <mxCell id="JpOBOUfPKi8hV-zPUk-4-72" style="edgeStyle=orthogonalEdgeStyle;rounded=0;orthogonalLoop=1;jettySize=auto;html=1;exitX=0.5;exitY=1;exitDx=0;exitDy=0;entryX=0.5;entryY=0;entryDx=0;entryDy=0;" edge="1" parent="JpOBOUfPKi8hV-zPUk-4-63" source="JpOBOUfPKi8hV-zPUk-4-69" target="JpOBOUfPKi8hV-zPUk-4-70">
          <mxGeometry relative="1" as="geometry" />
        </mxCell>
        <mxCell id="JpOBOUfPKi8hV-zPUk-4-69" value="Processor" style="rounded=1;whiteSpace=wrap;html=1;shadow=0;comic=0;labelBackgroundColor=none;strokeWidth=1;fontFamily=Verdana;fontSize=12;align=center;arcSize=50;" vertex="1" parent="JpOBOUfPKi8hV-zPUk-4-63">
          <mxGeometry x="30" y="95" width="100" height="30" as="geometry" />
        </mxCell>
        <mxCell id="JpOBOUfPKi8hV-zPUk-4-70" value="OUTPUT" style="rounded=1;whiteSpace=wrap;html=1;shadow=0;comic=0;labelBackgroundColor=none;strokeWidth=1;fontFamily=Verdana;fontSize=12;align=center;arcSize=50;" vertex="1" parent="JpOBOUfPKi8hV-zPUk-4-63">
          <mxGeometry x="30" y="160" width="100" height="30" as="geometry" />
        </mxCell>
        <mxCell id="JpOBOUfPKi8hV-zPUk-4-79" style="edgeStyle=orthogonalEdgeStyle;rounded=0;orthogonalLoop=1;jettySize=auto;html=1;exitX=0.5;exitY=1;exitDx=0;exitDy=0;entryX=0.5;entryY=0;entryDx=0;entryDy=0;" edge="1" parent="JpOBOUfPKi8hV-zPUk-4-1" source="JpOBOUfPKi8hV-zPUk-4-73" target="JpOBOUfPKi8hV-zPUk-4-77">
          <mxGeometry relative="1" as="geometry" />
        </mxCell>
        <mxCell id="JpOBOUfPKi8hV-zPUk-4-73" value="发布" style="rounded=1;whiteSpace=wrap;html=1;shadow=0;comic=0;labelBackgroundColor=none;strokeWidth=1;fontFamily=Verdana;fontSize=12;align=center;arcSize=50;" vertex="1" parent="JpOBOUfPKi8hV-zPUk-4-1">
          <mxGeometry x="78.5" y="510" width="100" height="30" as="geometry" />
        </mxCell>
        <mxCell id="JpOBOUfPKi8hV-zPUk-4-77" value="" style="shape=mxgraph.bpmn.shape;html=1;verticalLabelPosition=bottom;labelBackgroundColor=#ffffff;verticalAlign=top;perimeter=ellipsePerimeter;outline=end;symbol=terminate;rounded=0;shadow=0;comic=0;strokeWidth=1;fontFamily=Verdana;fontSize=12;align=center;" vertex="1" parent="JpOBOUfPKi8hV-zPUk-4-1">
          <mxGeometry x="108.5" y="600" width="40" height="40" as="geometry" />
        </mxCell>
        <mxCell id="JpOBOUfPKi8hV-zPUk-4-84" value="ControllerService" style="rounded=1;whiteSpace=wrap;html=1;shadow=0;comic=0;labelBackgroundColor=none;strokeWidth=1;fontFamily=Verdana;fontSize=12;align=center;arcSize=50;" vertex="1" parent="JpOBOUfPKi8hV-zPUk-4-1">
          <mxGeometry x="234" y="360" width="127" height="30" as="geometry" />
        </mxCell>
        <mxCell id="JpOBOUfPKi8hV-zPUk-4-85" value="" style="edgeStyle=orthogonalEdgeStyle;rounded=0;orthogonalLoop=1;jettySize=auto;html=1;dashed=1;" edge="1" parent="JpOBOUfPKi8hV-zPUk-4-1" source="JpOBOUfPKi8hV-zPUk-4-69" target="JpOBOUfPKi8hV-zPUk-4-84">
          <mxGeometry relative="1" as="geometry" />
        </mxCell>
        <mxCell id="JpOBOUfPKi8hV-zPUk-4-86" value="引用" style="edgeLabel;html=1;align=center;verticalAlign=middle;resizable=0;points=[];" vertex="1" connectable="0" parent="JpOBOUfPKi8hV-zPUk-4-85">
          <mxGeometry x="-0.2093" y="-2" relative="1" as="geometry">
            <mxPoint x="1" as="offset" />
          </mxGeometry>
        </mxCell>
        <mxCell id="JpOBOUfPKi8hV-zPUk-4-89" style="edgeStyle=orthogonalEdgeStyle;rounded=0;orthogonalLoop=1;jettySize=auto;html=1;exitX=0.5;exitY=1;exitDx=0;exitDy=0;entryX=0.5;entryY=0;entryDx=0;entryDy=0;" edge="1" parent="JpOBOUfPKi8hV-zPUk-4-1" source="JpOBOUfPKi8hV-zPUk-4-87" target="JpOBOUfPKi8hV-zPUk-4-84">
          <mxGeometry relative="1" as="geometry" />
        </mxCell>
        <mxCell id="JpOBOUfPKi8hV-zPUk-4-87" value="CtrSvcType" style="rounded=1;whiteSpace=wrap;html=1;shadow=0;comic=0;labelBackgroundColor=none;strokeWidth=1;fontFamily=Verdana;fontSize=12;align=center;arcSize=50;" vertex="1" parent="JpOBOUfPKi8hV-zPUk-4-1">
          <mxGeometry x="234" y="270" width="127" height="30" as="geometry" />
        </mxCell>
        <mxCell id="JpOBOUfPKi8hV-zPUk-4-22" style="edgeStyle=none;rounded=0;html=1;dashed=1;labelBackgroundColor=none;startArrow=none;startFill=0;endArrow=openThin;endFill=0;jettySize=auto;orthogonalLoop=1;strokeWidth=1;fontFamily=Verdana;fontSize=12;exitX=0;exitY=0.5;exitDx=0;exitDy=0;entryX=0.5;entryY=1;entryDx=0;entryDy=0;" edge="1" parent="1c1d494c118603dd-1" source="JpOBOUfPKi8hV-zPUk-4-8" target="JpOBOUfPKi8hV-zPUk-4-68">
          <mxGeometry relative="1" as="geometry">
            <mxPoint x="727" y="410" as="sourcePoint" />
            <mxPoint x="717" y="230" as="targetPoint" />
          </mxGeometry>
        </mxCell>
        <mxCell id="JpOBOUfPKi8hV-zPUk-4-61" value="引用" style="edgeLabel;html=1;align=center;verticalAlign=middle;resizable=0;points=[];" vertex="1" connectable="0" parent="JpOBOUfPKi8hV-zPUk-4-22">
          <mxGeometry x="-0.0089" y="-3" relative="1" as="geometry">
            <mxPoint x="-1" as="offset" />
          </mxGeometry>
        </mxCell>
        <mxCell id="JpOBOUfPKi8hV-zPUk-4-75" style="rounded=0;orthogonalLoop=1;jettySize=auto;html=1;exitX=0;exitY=0.5;exitDx=0;exitDy=0;entryX=1;entryY=0.5;entryDx=0;entryDy=0;dashed=1;" edge="1" parent="1c1d494c118603dd-1" source="JpOBOUfPKi8hV-zPUk-4-69" target="1c1d494c118603dd-16">
          <mxGeometry relative="1" as="geometry" />
        </mxCell>
        <mxCell id="JpOBOUfPKi8hV-zPUk-4-76" style="rounded=0;orthogonalLoop=1;jettySize=auto;html=1;entryX=1;entryY=0.75;entryDx=0;entryDy=0;dashed=1;exitX=0;exitY=0.5;exitDx=0;exitDy=0;" edge="1" parent="1c1d494c118603dd-1" source="JpOBOUfPKi8hV-zPUk-4-69" target="1c1d494c118603dd-15">
          <mxGeometry relative="1" as="geometry" />
        </mxCell>
        <mxCell id="JpOBOUfPKi8hV-zPUk-4-80" style="rounded=0;orthogonalLoop=1;jettySize=auto;html=1;exitX=1;exitY=0.5;exitDx=0;exitDy=0;entryX=0;entryY=0.5;entryDx=0;entryDy=0;fillColor=#ffe6cc;strokeColor=#d79b00;" edge="1" parent="1c1d494c118603dd-1" source="JpOBOUfPKi8hV-zPUk-4-31" target="JpOBOUfPKi8hV-zPUk-4-4">
          <mxGeometry relative="1" as="geometry">
            <mxPoint x="767" y="360" as="targetPoint" />
          </mxGeometry>
        </mxCell>
        <mxCell id="JpOBOUfPKi8hV-zPUk-4-81" value="触发" style="edgeLabel;html=1;align=center;verticalAlign=middle;resizable=0;points=[];fontColor=#FFCC99;" vertex="1" connectable="0" parent="JpOBOUfPKi8hV-zPUk-4-80">
          <mxGeometry x="0.0228" y="-3" relative="1" as="geometry">
            <mxPoint as="offset" />
          </mxGeometry>
        </mxCell>
        <mxCell id="JpOBOUfPKi8hV-zPUk-4-88" style="edgeStyle=orthogonalEdgeStyle;rounded=0;orthogonalLoop=1;jettySize=auto;html=1;exitX=0.75;exitY=1;exitDx=0;exitDy=0;dashed=1;fillColor=#ffe6cc;strokeColor=#d79b00;" edge="1" parent="1c1d494c118603dd-1" source="1c1d494c118603dd-15" target="JpOBOUfPKi8hV-zPUk-4-87">
          <mxGeometry relative="1" as="geometry">
            <Array as="points">
              <mxPoint x="332" y="260" />
              <mxPoint x="1048" y="260" />
            </Array>
          </mxGeometry>
        </mxCell>
        <mxCell id="JpOBOUfPKi8hV-zPUk-4-91" value="创建" style="edgeLabel;html=1;align=center;verticalAlign=middle;resizable=0;points=[];fontColor=#FFCC99;" vertex="1" connectable="0" parent="JpOBOUfPKi8hV-zPUk-4-88">
          <mxGeometry x="-0.1595" y="1" relative="1" as="geometry">
            <mxPoint as="offset" />
          </mxGeometry>
        </mxCell>
      </root>
    </mxGraphModel>
  </diagram>
</mxfile>
